<svg width="23" height="23" viewBox="0 0 23 23" fill="none" xmlns="http://www.w3.org/2000/svg">
<path fill-rule="evenodd" clip-rule="evenodd" d="M12.058 0C13.1212 0 14.0347 0.697203 14.2347 1.66142L14.3236 2.09018C14.6733 3.77548 16.5611 4.7819 18.3166 4.21884L18.7634 4.07552C19.7678 3.75339 20.8784 4.13521 21.41 4.98539L22.213 6.26954C22.7446 7.11976 22.5474 8.19878 21.743 8.84082L21.3853 9.12635C19.9794 10.2486 19.9794 12.2614 21.3853 13.3836L21.743 13.6691C22.5474 14.3112 22.7446 15.3902 22.213 16.2404L21.4101 17.5246C20.8784 18.3748 19.7678 18.7566 18.7633 18.4344L18.3167 18.2911C16.5611 17.7279 14.6733 18.7344 14.3236 20.4198L14.2347 20.8485C14.0347 21.8128 13.1212 22.51 12.058 22.51H10.452C9.38882 22.51 8.47534 21.8128 8.2753 20.8486L8.1863 20.4196C7.83665 18.7344 5.94873 17.7279 4.19323 18.2911L3.74668 18.4343C2.74229 18.7566 1.63162 18.3747 1.09997 17.5245L0.29703 16.2404C-0.234597 15.3902 -0.0374016 14.3112 0.766936 13.6691L1.1247 13.3836C2.53058 12.2613 2.53058 10.2486 1.1247 9.1264L0.766936 8.84083C-0.0374016 8.19878 -0.234596 7.11978 0.29703 6.26958L1.1 4.98542C1.63163 4.13522 2.74227 3.7534 3.74665 4.07555L4.19332 4.21883C5.94879 4.7819 7.83665 3.77555 8.1863 2.09029L8.27529 1.66134C8.47534 0.697165 9.38872 0 10.452 0H12.058ZM11.255 14.4707C13.1198 14.4707 14.6315 13.031 14.6315 11.255C14.6315 9.47896 13.1198 8.03928 11.255 8.03928C9.39015 8.03928 7.87847 9.47896 7.87847 11.255C7.87847 13.031 9.39015 14.4707 11.255 14.4707Z" fill="#E94E1A"/>
</svg>
