<svg width="25" height="26" viewBox="0 0 25 26" fill="none" xmlns="http://www.w3.org/2000/svg">
<path fill-rule="evenodd" clip-rule="evenodd" d="M13.2579 0C14.4269 0 15.4313 0.804913 15.6512 1.91809L15.749 2.41309C16.1334 4.35874 18.2091 5.52064 20.1393 4.87059L20.6306 4.70514C21.7349 4.33324 22.9561 4.77405 23.5405 5.75558L24.4234 7.23811C25.008 8.21967 24.7911 9.46539 23.9067 10.2066L23.5134 10.5363C21.9675 11.8319 21.9675 14.1557 23.5134 15.4512L23.9067 15.7808C24.7911 16.5221 25.008 17.7678 24.4234 18.7494L23.5406 20.2319C22.9561 21.2135 21.7349 21.6542 20.6305 21.2823L20.1394 21.1168C18.2091 20.4667 16.1334 21.6286 15.749 23.5744L15.6512 24.0694C15.4313 25.1826 14.4269 25.9875 13.2579 25.9875H11.4921C10.3231 25.9875 9.31872 25.1826 9.09879 24.0695L9.00092 23.5742C8.61648 21.6286 6.54069 20.4667 4.6105 21.1168L4.11951 21.2822C3.01518 21.6542 1.79398 21.2134 1.20943 20.2318L0.326587 18.7494C-0.257941 17.7678 -0.0411235 16.5221 0.843255 15.7808L1.23662 15.4512C2.78239 14.1556 2.78239 11.8319 1.23662 10.5363L0.843255 10.2066C-0.0411235 9.46539 -0.25794 8.2197 0.326587 7.23816L1.20946 5.75561C1.79399 4.77406 3.01516 4.33325 4.11948 4.70517L4.6106 4.87058C6.54076 5.52064 8.61648 4.35882 9.00092 2.41321L9.09877 1.918C9.31872 0.804868 10.323 0 11.4921 0H13.2579ZM12.375 16.7063C14.4253 16.7063 16.0875 15.0441 16.0875 12.9938C16.0875 10.9433 14.4253 9.28125 12.375 9.28125C10.3246 9.28125 8.66247 10.9433 8.66247 12.9938C8.66247 15.0441 10.3246 16.7063 12.375 16.7063Z" fill="#4A4A4A"/>
</svg>
