<svg width="23" height="23" viewBox="0 0 23 23" fill="none" xmlns="http://www.w3.org/2000/svg">
<path d="M22.1803 12.0553C22.0757 12.1607 21.9513 12.2444 21.8142 12.3015C21.6771 12.3586 21.53 12.388 21.3815 12.388C21.233 12.388 21.086 12.3586 20.9489 12.3015C20.8118 12.2444 20.6874 12.1607 20.5828 12.0553L20.2565 11.729V20.594C20.236 21.1203 20.0079 21.6169 19.622 21.9754C19.2362 22.3338 18.7241 22.5248 18.1978 22.5065H15.7565C15.4582 22.5065 15.172 22.388 14.961 22.177C14.75 21.966 14.6315 21.6799 14.6315 21.3815V14.744C14.6315 14.4457 14.513 14.1595 14.302 13.9485C14.091 13.7375 13.8049 13.619 13.5065 13.619H9.00652C8.70815 13.619 8.42201 13.7375 8.21103 13.9485C8.00005 14.1595 7.88152 14.4457 7.88152 14.744V21.3815C7.88152 21.6799 7.763 21.966 7.55202 22.177C7.34104 22.388 7.05489 22.5065 6.75652 22.5065H4.31527C3.78896 22.5248 3.27685 22.3338 2.89101 21.9754C2.50517 21.6169 2.27703 21.1203 2.25652 20.594V11.729L1.93027 12.0553C1.82569 12.1607 1.70126 12.2444 1.56417 12.3015C1.42708 12.3586 1.28004 12.388 1.13152 12.388C0.98301 12.388 0.835966 12.3586 0.698874 12.3015C0.561783 12.2444 0.437356 12.1607 0.332773 12.0553C0.227329 11.9507 0.143635 11.8263 0.0865203 11.6892C0.0294055 11.5521 0 11.405 0 11.2565C0 11.108 0.0294055 10.961 0.0865203 10.8239C0.143635 10.6868 0.227329 10.5624 0.332773 10.4578L10.4578 0.332773C10.5624 0.227329 10.6868 0.143635 10.8239 0.0865203C10.961 0.0294055 11.108 0 11.2565 0C11.405 0 11.5521 0.0294055 11.6892 0.0865203C11.8263 0.143635 11.9507 0.227329 12.0553 0.332773L22.1803 10.4578C22.2857 10.5624 22.3694 10.6868 22.4265 10.8239C22.4836 10.961 22.513 11.108 22.513 11.2565C22.513 11.405 22.4836 11.5521 22.4265 11.6892C22.3694 11.8263 22.2857 11.9507 22.1803 12.0553Z" fill="#4A4A4A"/>
</svg>
