<svg width="23" height="23" viewBox="0 0 23 23" fill="none" xmlns="http://www.w3.org/2000/svg">
<path d="M22.5 15.9646V2.18235C22.5 0.832227 21.2482 -0.193816 19.8753 0.0310176L7.50031 2.05766C6.41758 2.23498 5.625 3.14423 5.625 4.20899V13.9203C5.26543 13.8306 4.88846 13.7828 4.5 13.7828C2.01472 13.7828 0 15.7365 0 18.1464C0 20.5563 2.01472 22.51 4.5 22.51C6.98528 22.51 9 20.5563 9 18.1464V5.1311L19.125 3.47294V11.7385C18.7654 11.6488 18.3885 11.601 18 11.601C15.5148 11.601 13.5 13.5547 13.5 15.9646C13.5 18.3745 15.5148 20.3282 18 20.3282C20.4852 20.3282 22.5 18.3745 22.5 15.9646Z" fill="#4A4A4A"/>
</svg>
