<svg width="23" height="24" viewBox="0 0 23 24" fill="none" xmlns="http://www.w3.org/2000/svg">
<path d="M22.5 16.4637V2.25058C22.5 0.858244 21.2482 -0.199875 19.8753 0.0319873L7.50031 2.12199C6.41758 2.30485 5.625 3.24252 5.625 4.34057V14.3555C5.26543 14.263 4.88846 14.2137 4.5 14.2137C2.01472 14.2137 0 16.2285 0 18.7137C0 21.1989 2.01472 23.2137 4.5 23.2137C6.98528 23.2137 9 21.1989 9 18.7137V5.29151L19.125 3.58151V12.1055C18.7654 12.013 18.3885 11.9637 18 11.9637C15.5148 11.9637 13.5 13.9785 13.5 16.4637C13.5 18.9489 15.5148 20.9637 18 20.9637C20.4852 20.9637 22.5 18.9489 22.5 16.4637Z" fill="#4A4A4A"/>
</svg>
